<svg width="22" height="19" viewBox="0 0 22 19" fill="none" xmlns="http://www.w3.org/2000/svg">
<path d="M2.84657 3H19.8203C20.8948 3 21.7501 2.33523 21.7501 1.5C21.7501 0.664773 20.8948 0 19.8203 0H2.84657C1.77201 0 0.916748 0.664773 0.916748 1.5C0.916748 2.33523 1.77201 3 2.84657 3Z" fill="#5C4474"/>
<path d="M19.8203 8H2.84657C1.77201 8 0.916748 8.66477 0.916748 9.5C0.916748 10.3352 1.77201 11 2.84657 11H19.8203C20.8948 11 21.7501 10.3352 21.7501 9.5C21.7501 8.66477 20.8948 8 19.8203 8Z" fill="#5C4474"/>
<path d="M19.8203 16H2.84657C1.77201 16 0.916748 16.6648 0.916748 17.5C0.916748 18.3352 1.77201 19 2.84657 19H19.8203C20.8948 19 21.7501 18.3352 21.7501 17.5C21.7501 16.6648 20.8948 16 19.8203 16Z" fill="#5C4474"/>
</svg>
